<?xml version="1.0" encoding="UTF-8" standalone="no"?>
<svg
   version="1.1"
   id="svg2"
   xml:space="preserve"
   width="342.01566"
   height="265.45343"
   viewBox="0 0 342.01566 265.45343"
   sodipodi:docname="yagodka2.svg"
   inkscape:version="1.1.2 (b8e25be833, 2022-02-05)"
   xmlns:inkscape="http://www.inkscape.org/namespaces/inkscape"
   xmlns:sodipodi="http://sodipodi.sourceforge.net/DTD/sodipodi-0.dtd"
   xmlns:xlink="http://www.w3.org/1999/xlink"
   xmlns="http://www.w3.org/2000/svg"
   xmlns:svg="http://www.w3.org/2000/svg"
   xmlns:rdf="http://www.w3.org/1999/02/22-rdf-syntax-ns#"
   xmlns:cc="http://creativecommons.org/ns#"
   xmlns:dc="http://purl.org/dc/elements/1.1/"><metadata
     id="metadata8"><rdf:RDF><cc:Work
         rdf:about=""><dc:format>image/svg+xml</dc:format><dc:type
           rdf:resource="http://purl.org/dc/dcmitype/StillImage" /></cc:Work></rdf:RDF></metadata><defs
     id="defs6"><linearGradient
       inkscape:collect="always"
       id="linearGradient16668"><stop
         style="stop-color:#ff00ff;stop-opacity:1;"
         offset="0"
         id="stop16664" /><stop
         style="stop-color:#ff00ff;stop-opacity:0;"
         offset="1"
         id="stop16666" /></linearGradient><radialGradient
       fx="0"
       fy="0"
       cx="0"
       cy="0"
       r="1"
       gradientUnits="userSpaceOnUse"
       gradientTransform="matrix(2760.29,0,0,-2760.29,2250,2250)"
       spreadMethod="pad"
       id="radialGradient18"><stop
         style="stop-opacity:1;stop-color:#ffffff"
         offset="0"
         id="stop14" /><stop
         style="stop-opacity:1;stop-color:#bcbcbd"
         offset="1"
         id="stop16" /></radialGradient><radialGradient
       inkscape:collect="always"
       xlink:href="#linearGradient16668"
       id="radialGradient16674"
       cx="221.01222"
       cy="-140.89221"
       fx="221.01222"
       fy="-140.89221"
       r="109.7168"
       gradientTransform="matrix(1,0,0,0.22778816,0,-108.79863)"
       gradientUnits="userSpaceOnUse" /></defs><sodipodi:namedview
     pagecolor="#ffffff"
     bordercolor="#666666"
     borderopacity="1"
     objecttolerance="10"
     gridtolerance="10"
     guidetolerance="10"
     inkscape:pageopacity="0"
     inkscape:pageshadow="2"
     inkscape:window-width="1920"
     inkscape:window-height="991"
     id="namedview4"
     inkscape:pagecheckerboard="0"
     showgrid="false"
     inkscape:zoom="1.33"
     inkscape:cx="-292.4812"
     inkscape:cy="219.92481"
     inkscape:window-x="-9"
     inkscape:window-y="-9"
     inkscape:window-maximized="1"
     inkscape:current-layer="layer1"
     fit-margin-top="0"
     fit-margin-left="0"
     fit-margin-right="0"
     fit-margin-bottom="0" /><g
     inkscape:groupmode="layer"
     id="layer2"
     inkscape:label="ink_ext_XXXXXX 2"
     transform="translate(-129.03698,-115.78947)"><path
       style="fill:#05bf85;fill-opacity:1;stroke-width:0.75188"
       d="m 208.05273,261.46617 c -2.84512,-4.03196 -7.11786,-10.12219 -9.49498,-13.53384 -2.37711,-3.41165 -4.56218,-6.20301 -4.8557,-6.20301 -0.29351,0 -3.69419,4.55014 -7.55706,10.11141 -6.87783,9.90184 -7.07195,10.10186 -9.36615,9.65088 -6.16172,-1.21125 -6.61798,0.17333 5.82209,-17.66802 l 11.38403,-16.32678 10.33835,-0.0266 10.33834,-0.0266 v -8.27068 -8.27067 h 7.89474 7.89474 v 8.27067 8.27068 h 10.1162 10.1162 l 12.61458,-18.04511 12.61457,-18.04512 49.2617,0.0123 49.26171,0.0123 L 400,227.91942 c 14.06015,20.09781 26.18924,37.51709 26.95353,38.70952 l 1.38963,2.16805 h -4.43878 -4.43877 l -22.09719,-31.57894 c -12.15345,-17.36843 -22.33894,-31.57895 -22.63441,-31.57895 -0.29548,0 -10.46459,14.20539 -22.59803,31.56754 l -22.06079,31.56754 -58.42475,0.0114 -58.42475,0.0114 z"
       id="path5691" /></g><g
     inkscape:groupmode="layer"
     id="layer1"
     inkscape:label="ink_ext_XXXXXX 1"
     transform="translate(-129.03698,-115.78947)"><g
       id="g2095"
       transform="matrix(0.05926317,0,0,-0.05926317,238.40603,642.09127)"><path
         d="m 607.609,7781.82 c -74.961,93.43 10.989,454.37 366.192,126.78 -231.985,22.69 -198.028,-223.2 -366.192,-126.78"
         style="fill:#50b937;fill-opacity:1;fill-rule:nonzero;stroke:none"
         id="path906" /><path
         d="m 607.609,7781.82 c 87.325,197.77 205.852,194.83 366.192,126.78 -231.985,22.69 -198.028,-223.2 -366.192,-126.78"
         style="fill:#3f8a35;fill-opacity:1;fill-rule:nonzero;stroke:none"
         id="path908" /><path
         d="m 616.953,7741.41 -53.305,-27.33 c 10.336,89.06 1.844,353.97 -63.738,452.23 l 33.274,22.21 c 71.687,-107.41 94.98,-350.52 83.769,-447.11"
         style="fill:#67c530;fill-opacity:1;fill-rule:nonzero;stroke:none"
         id="path910" /><path
         d="m 850.895,7206.57 c 0,-67.43 -54.653,-122.08 -122.082,-122.08 -67.422,0 -122.079,54.65 -122.079,122.08 0,67.42 54.657,122.08 122.079,122.08 67.429,0 122.082,-54.66 122.082,-122.08"
         style="fill:#db0d72;fill-opacity:1;fill-rule:nonzero;stroke:none"
         id="path912" /><path
         d="m 774.727,7319.64 c 17.847,-21.22 28.632,-48.58 28.632,-78.48 0,-67.43 -54.652,-122.08 -122.078,-122.08 -16.258,0 -31.734,3.24 -45.914,9.01 22.391,-26.64 55.926,-43.6 93.446,-43.6 67.429,0 122.082,54.65 122.082,122.08 0,51.17 -31.516,94.92 -76.168,113.07"
         style="fill:#c6116b;fill-opacity:1;fill-rule:nonzero;stroke:none"
         id="path914" /><path
         d="m 572.055,7206.57 c 0,-67.43 -54.653,-122.08 -122.078,-122.08 -67.422,0 -122.082,54.65 -122.082,122.08 0,67.42 54.66,122.08 122.082,122.08 67.425,0 122.078,-54.66 122.078,-122.08"
         style="fill:#db0d72;fill-opacity:1;fill-rule:nonzero;stroke:none"
         id="path916" /><path
         d="m 495.891,7319.64 c 17.843,-21.22 28.632,-48.58 28.632,-78.48 0,-67.43 -54.656,-122.08 -122.082,-122.08 -16.253,0 -31.73,3.24 -45.914,9.01 22.395,-26.64 55.93,-43.6 93.45,-43.6 67.425,0 122.078,54.65 122.078,122.08 0,51.17 -31.512,94.92 -76.164,113.07"
         style="fill:#c6116b;fill-opacity:1;fill-rule:nonzero;stroke:none"
         id="path918" /><path
         d="m 709.047,7150.1 c 0,-67.43 -54.652,-122.08 -122.078,-122.08 -67.422,0 -122.082,54.65 -122.082,122.08 0,67.42 54.66,122.08 122.082,122.08 67.426,0 122.078,-54.66 122.078,-122.08"
         style="fill:#ed0f82;fill-opacity:1;fill-rule:nonzero;stroke:none"
         id="path920" /><path
         d="m 632.883,7263.17 c 17.844,-21.22 28.633,-48.58 28.633,-78.48 0,-67.43 -54.657,-122.08 -122.082,-122.08 -16.254,0 -31.735,3.24 -45.914,9 22.394,-26.63 55.929,-43.59 93.449,-43.59 67.426,0 122.078,54.65 122.078,122.08 0,51.17 -31.512,94.92 -76.164,113.07"
         style="fill:#c6116b;fill-opacity:1;fill-rule:nonzero;stroke:none"
         id="path922" /><path
         d="m 935.98,7359.35 c 0,-67.42 -54.652,-122.08 -122.078,-122.08 -67.422,0 -122.082,54.66 -122.082,122.08 0,67.43 54.66,122.08 122.082,122.08 67.426,0 122.078,-54.65 122.078,-122.08"
         style="fill:#db0d72;fill-opacity:1;fill-rule:nonzero;stroke:none"
         id="path924" /><path
         d="m 859.816,7472.43 c 17.844,-21.22 28.633,-48.58 28.633,-78.49 0,-67.42 -54.656,-122.08 -122.082,-122.08 -16.254,0 -31.734,3.25 -45.914,9.01 22.395,-26.63 55.93,-43.6 93.449,-43.6 67.426,0 122.078,54.66 122.078,122.08 0,51.18 -31.511,94.93 -76.164,113.08"
         style="fill:#c6116b;fill-opacity:1;fill-rule:nonzero;stroke:none"
         id="path926" /><path
         d="m 488.824,7359.35 c 0,-67.42 -54.652,-122.08 -122.082,-122.08 -67.422,0 -122.078,54.66 -122.078,122.08 0,67.43 54.656,122.08 122.078,122.08 67.43,0 122.082,-54.65 122.082,-122.08"
         style="fill:#db0d72;fill-opacity:1;fill-rule:nonzero;stroke:none"
         id="path928" /><path
         d="m 412.656,7472.43 c 17.848,-21.22 28.633,-48.58 28.633,-78.49 0,-67.42 -54.652,-122.08 -122.078,-122.08 -16.258,0 -31.734,3.25 -45.914,9.01 22.391,-26.63 55.926,-43.6 93.445,-43.6 67.43,0 122.082,54.66 122.082,122.08 0,51.18 -31.515,94.93 -76.168,113.08"
         style="fill:#c6116b;fill-opacity:1;fill-rule:nonzero;stroke:none"
         id="path930" /><path
         d="m 415.023,7549.08 c 0,-67.42 -54.652,-122.08 -122.078,-122.08 -67.422,0 -122.082,54.66 -122.082,122.08 0,67.42 54.66,122.08 122.082,122.08 67.426,0 122.078,-54.66 122.078,-122.08"
         style="fill:#db0d72;fill-opacity:1;fill-rule:nonzero;stroke:none"
         id="path932" /><path
         d="m 338.859,7662.16 c 17.844,-21.23 28.633,-48.59 28.633,-78.49 0,-67.42 -54.656,-122.08 -122.082,-122.08 -16.254,0 -31.734,3.24 -45.914,9.01 22.395,-26.64 55.93,-43.6 93.449,-43.6 67.426,0 122.078,54.66 122.078,122.08 0,51.17 -31.511,94.92 -76.164,113.08"
         style="fill:#c6116b;fill-opacity:1;fill-rule:nonzero;stroke:none"
         id="path934" /><path
         d="m 1018.06,7549.08 c 0,-67.42 -54.65,-122.08 -122.08,-122.08 -67.421,0 -122.078,54.66 -122.078,122.08 0,67.42 54.657,122.08 122.078,122.08 67.43,0 122.08,-54.66 122.08,-122.08"
         style="fill:#db0d72;fill-opacity:1;fill-rule:nonzero;stroke:none"
         id="path936" /><path
         d="m 941.895,7662.16 c 17.847,-21.23 28.632,-48.59 28.632,-78.49 0,-67.42 -54.652,-122.08 -122.078,-122.08 -16.258,0 -31.734,3.24 -45.914,9.01 22.391,-26.64 55.926,-43.6 93.445,-43.6 67.43,0 122.08,54.66 122.08,122.08 0,51.17 -31.513,94.92 -76.165,113.08"
         style="fill:#c6116b;fill-opacity:1;fill-rule:nonzero;stroke:none"
         id="path938" /><path
         d="m 620.113,7313.18 c 0,-67.42 -54.652,-122.08 -122.082,-122.08 -67.422,0 -122.078,54.66 -122.078,122.08 0,67.42 54.656,122.08 122.078,122.08 67.43,0 122.082,-54.66 122.082,-122.08"
         style="fill:#ed0f82;fill-opacity:1;fill-rule:nonzero;stroke:none"
         id="path940" /><path
         d="m 543.945,7426.26 c 17.848,-21.23 28.633,-48.59 28.633,-78.49 0,-67.42 -54.652,-122.08 -122.078,-122.08 -16.258,0 -31.734,3.24 -45.914,9.01 22.391,-26.63 55.926,-43.6 93.445,-43.6 67.43,0 122.082,54.66 122.082,122.08 0,51.17 -31.515,94.92 -76.168,113.08"
         style="fill:#c6116b;fill-opacity:1;fill-rule:nonzero;stroke:none"
         id="path942" /><path
         d="m 812.613,7313.18 c 0,-67.42 -54.652,-122.08 -122.082,-122.08 -67.422,0 -122.078,54.66 -122.078,122.08 0,67.42 54.656,122.08 122.078,122.08 67.43,0 122.082,-54.66 122.082,-122.08"
         style="fill:#ed0f82;fill-opacity:1;fill-rule:nonzero;stroke:none"
         id="path944" /><path
         d="m 736.445,7426.26 c 17.848,-21.23 28.633,-48.59 28.633,-78.49 0,-67.42 -54.652,-122.08 -122.078,-122.08 -16.258,0 -31.734,3.24 -45.914,9.01 22.391,-26.63 55.926,-43.6 93.445,-43.6 67.43,0 122.082,54.66 122.082,122.08 0,51.17 -31.515,94.92 -76.168,113.08"
         style="fill:#c6116b;fill-opacity:1;fill-rule:nonzero;stroke:none"
         id="path946" /><path
         d="m 516.547,7492.62 c 0,-67.42 -54.652,-122.08 -122.078,-122.08 -67.422,0 -122.082,54.66 -122.082,122.08 0,67.42 54.66,122.08 122.082,122.08 67.426,0 122.078,-54.66 122.078,-122.08"
         style="fill:#ed0f82;fill-opacity:1;fill-rule:nonzero;stroke:none"
         id="path948" /><path
         d="m 440.383,7605.7 c 17.844,-21.23 28.633,-48.59 28.633,-78.49 0,-67.42 -54.657,-122.08 -122.082,-122.08 -16.254,0 -31.735,3.24 -45.914,9.01 22.394,-26.64 55.929,-43.6 93.449,-43.6 67.426,0 122.078,54.66 122.078,122.08 0,51.17 -31.512,94.92 -76.164,113.08"
         style="fill:#c6116b;fill-opacity:1;fill-rule:nonzero;stroke:none"
         id="path950" /><path
         d="m 709.047,7492.62 c 0,-67.42 -54.652,-122.08 -122.078,-122.08 -67.422,0 -122.082,54.66 -122.082,122.08 0,67.42 54.66,122.08 122.082,122.08 67.426,0 122.078,-54.66 122.078,-122.08"
         style="fill:#ed0f82;fill-opacity:1;fill-rule:nonzero;stroke:none"
         id="path952" /><path
         d="m 632.883,7605.7 c 17.844,-21.23 28.633,-48.59 28.633,-78.49 0,-67.42 -54.657,-122.08 -122.082,-122.08 -16.254,0 -31.735,3.24 -45.914,9.01 22.394,-26.64 55.929,-43.6 93.449,-43.6 67.426,0 122.078,54.66 122.078,122.08 0,51.17 -31.512,94.92 -76.164,113.08"
         style="fill:#c6116b;fill-opacity:1;fill-rule:nonzero;stroke:none"
         id="path954" /><path
         d="m 925.719,7492.62 c 0,-67.42 -54.653,-122.08 -122.082,-122.08 -67.422,0 -122.078,54.66 -122.078,122.08 0,67.42 54.656,122.08 122.078,122.08 67.429,0 122.082,-54.66 122.082,-122.08"
         style="fill:#ed0f82;fill-opacity:1;fill-rule:nonzero;stroke:none"
         id="path956" /><path
         d="m 849.551,7605.7 c 17.847,-21.23 28.633,-48.59 28.633,-78.49 0,-67.42 -54.653,-122.08 -122.079,-122.08 -16.257,0 -31.734,3.24 -45.914,9.01 22.391,-26.64 55.926,-43.6 93.446,-43.6 67.429,0 122.082,54.66 122.082,122.08 0,51.17 -31.516,94.92 -76.168,113.08"
         style="fill:#c6116b;fill-opacity:1;fill-rule:nonzero;stroke:none"
         id="path958" /><path
         d="m 398.637,7671.16 c 0,-67.42 -54.653,-122.08 -122.078,-122.08 -67.422,0 -122.082,54.66 -122.082,122.08 0,67.42 54.66,122.08 122.082,122.08 67.425,0 122.078,-54.66 122.078,-122.08"
         style="fill:#ed0f82;fill-opacity:1;fill-rule:nonzero;stroke:none"
         id="path960" /><path
         d="m 322.473,7784.24 c 17.847,-21.23 28.632,-48.59 28.632,-78.49 0,-67.42 -54.656,-122.08 -122.082,-122.08 -16.253,0 -31.734,3.24 -45.914,9.01 22.395,-26.64 55.93,-43.6 93.45,-43.6 67.425,0 122.078,54.66 122.078,122.08 0,51.17 -31.512,94.92 -76.164,113.08"
         style="fill:#c6116b;fill-opacity:1;fill-rule:nonzero;stroke:none"
         id="path962" /><path
         d="m 591.137,7671.16 c 0,-67.42 -54.653,-122.08 -122.078,-122.08 -67.422,0 -122.082,54.66 -122.082,122.08 0,67.42 54.66,122.08 122.082,122.08 67.425,0 122.078,-54.66 122.078,-122.08"
         style="fill:#ed0f82;fill-opacity:1;fill-rule:nonzero;stroke:none"
         id="path964" /><path
         d="m 514.973,7784.24 c 17.847,-21.23 28.632,-48.59 28.632,-78.49 0,-67.42 -54.656,-122.08 -122.082,-122.08 -16.253,0 -31.734,3.24 -45.914,9.01 22.395,-26.64 55.93,-43.6 93.45,-43.6 67.425,0 122.078,54.66 122.078,122.08 0,51.17 -31.512,94.92 -76.164,113.08"
         style="fill:#c6116b;fill-opacity:1;fill-rule:nonzero;stroke:none"
         id="path966" /><path
         d="m 807.809,7671.16 c 0,-67.42 -54.653,-122.08 -122.082,-122.08 -67.422,0 -122.079,54.66 -122.079,122.08 0,67.42 54.657,122.08 122.079,122.08 67.429,0 122.082,-54.66 122.082,-122.08"
         style="fill:#ed0f82;fill-opacity:1;fill-rule:nonzero;stroke:none"
         id="path968" /><path
         d="m 731.641,7784.24 c 17.847,-21.23 28.632,-48.59 28.632,-78.49 0,-67.42 -54.652,-122.08 -122.078,-122.08 -16.257,0 -31.734,3.24 -45.914,9.01 22.391,-26.64 55.93,-43.6 93.446,-43.6 67.429,0 122.082,54.66 122.082,122.08 0,51.17 -31.516,94.92 -76.168,113.08"
         style="fill:#c6116b;fill-opacity:1;fill-rule:nonzero;stroke:none"
         id="path970" /><path
         d="m 1022.38,7671.16 c 0,-67.42 -54.65,-122.08 -122.075,-122.08 -67.422,0 -122.082,54.66 -122.082,122.08 0,67.42 54.66,122.08 122.082,122.08 67.425,0 122.075,-54.66 122.075,-122.08"
         style="fill:#ed0f82;fill-opacity:1;fill-rule:nonzero;stroke:none"
         id="path972" /><path
         d="m 946.215,7784.24 c 17.848,-21.23 28.633,-48.59 28.633,-78.49 0,-67.42 -54.653,-122.08 -122.078,-122.08 -16.254,0 -31.735,3.24 -45.915,9.01 22.395,-26.64 55.93,-43.6 93.45,-43.6 67.425,0 122.075,54.66 122.075,122.08 0,51.17 -31.513,94.92 -76.165,113.08"
         style="fill:#c6116b;fill-opacity:1;fill-rule:nonzero;stroke:none"
         id="path974" /><path
         d="m 444.586,7662.16 c 0,-22.1 -17.91,-40 -40,-40 -22.09,0 -40,17.9 -40,40 0,22.09 17.91,40 40,40 22.09,0 40,-17.91 40,-40"
         style="fill:#f149ad;fill-opacity:1;fill-rule:nonzero;stroke:none"
         id="path976" /><path
         d="m 681.285,7703.72 c 0,-22.09 -17.91,-40 -40,-40 -22.09,0 -40,17.91 -40,40 0,22.09 17.91,40 40,40 22.09,0 40,-17.91 40,-40"
         style="fill:#f149ad;fill-opacity:1;fill-rule:nonzero;stroke:none"
         id="path978" /><path
         d="m 568.824,7132.05 c 0,-22.09 -17.91,-40 -40,-40 -22.09,0 -40,17.91 -40,40 0,22.09 17.91,40 40,40 22.09,0 40,-17.91 40,-40"
         style="fill:#f149ad;fill-opacity:1;fill-rule:nonzero;stroke:none"
         id="path980" /><path
         d="m 478.637,7303.17 c 0,-22.09 -17.91,-40 -40,-40 -22.09,0 -40,17.91 -40,40 0,22.09 17.91,40 40,40 22.09,0 40,-17.91 40,-40"
         style="fill:#f149ad;fill-opacity:1;fill-rule:nonzero;stroke:none"
         id="path982" /><path
         d="m 568.824,7492.62 c 0,-22.09 -17.91,-40 -40,-40 -22.09,0 -40,17.91 -40,40 0,22.09 17.91,40 40,40 22.09,0 40,-17.91 40,-40"
         style="fill:#f149ad;fill-opacity:1;fill-rule:nonzero;stroke:none"
         id="path984" /><path
         d="m 584.367,7775.63 c 8.516,129.12 -291.027,395.42 -402.652,-114.48 191.312,163.7 313.484,-74.99 402.652,114.48"
         style="fill:#67c530;fill-opacity:1;fill-rule:nonzero;stroke:none"
         id="path986" /><path
         d="m 584.367,7775.63 c -199.738,121.01 -302.847,45.02 -402.652,-114.48 191.312,163.7 313.484,-74.99 402.652,114.48"
         style="fill:#4fa537;fill-opacity:1;fill-rule:nonzero;stroke:none"
         id="path988" /><path
         d="m 619.906,7775.29 c 130.465,290.55 276.774,-75 392.854,-98.73 -293.19,-64.56 -260.85,114.97 -392.854,98.73"
         style="fill:#67c530;fill-opacity:1;fill-rule:nonzero;stroke:none"
         id="path990" /><path
         d="m 1001.13,7674.22 c -89.669,-4.45 -275.86,266.59 -381.224,101.07 130.196,16.02 100.75,-158.24 381.224,-101.07"
         style="fill:#4fa537;fill-opacity:1;fill-rule:nonzero;stroke:none"
         id="path992" /></g></g><g
     id="g10"
     inkscape:groupmode="layer"
     inkscape:label="ink_ext_XXXXXX"
     transform="matrix(1.3333333,0,0,-1.3333333,-129.03698,484.21053)"><path
       style="fill:#05bf85;fill-opacity:1;stroke-width:0.75188"
       d="m 265.47065,380.82799 c -81.17691,-4.03654 -127.58709,-17.61425 -135.43762,-39.62347 -2.87232,-8.05267 0.67256,-17.03717 7.99715,-20.26877 2.48856,-1.09795 2.94924,-1.61544 2.55234,-2.86709 -1.83888,-5.79899 -2.0565,-7.91701 -1.14714,-11.16492 1.90165,-6.79202 8.16589,-11.73982 14.90724,-11.77445 l 3.21479,-0.0165 -1.21653,-2.35251 c -3.89521,-7.53251 0.95335,-16.21017 9.51704,-17.03303 3.32627,-0.31961 3.7053,-0.56017 4.4532,-2.82633 0.93596,-2.83597 3.57904,-4.8558 6.35416,-4.8558 h 1.90615 v 28.85867 28.85867 l 19.49131,10.61502 19.49131,10.61501 h 70.35832 70.35831 v -27.06767 -27.06767 h 16.16541 16.16541 v 27.06767 27.06767 h 14.28572 14.28571 v -34.98101 -34.98102 l 1.91566,-0.72833 c 3.14439,-1.1955 6.96823,0.85646 8.4031,4.50928 1.12398,2.86136 1.3566,3.02319 4.34576,3.02319 8.22896,0 13.73188,9.63484 9.82166,17.19636 l -1.21652,2.35251 3.21479,0.0165 c 9.46216,0.0486 17.06233,9.15967 15.03889,18.0286 -0.42456,1.8609 -0.99465,4.0696 -1.26685,4.90822 -0.40449,1.24615 -0.0154,1.69815 2.12917,2.47365 4.75855,1.72071 9.49404,8.59657 9.49404,13.78517 0,18.46049 -42.97283,31.32217 -124.06015,37.13096 -19.31894,1.38393 -63.76421,1.98442 -81.52183,1.10142 z"
       id="path5730"
       transform="matrix(0.75000002,0,0,-0.75000002,0,450.00001)" /><path
       style="fill:#05bf85;fill-opacity:1;stroke-width:0.75188"
       d="m 198.68421,313.70307 -9.58647,-4.58193 v -10.76358 c 0,-5.91997 0.25376,-10.7679 0.56391,-10.77318 0.31015,-0.005 4.70865,1.08116 9.77444,2.41432 l 9.21053,2.42394 v 12.9992 c 0,7.14957 -0.0846,12.9686 -0.18797,12.93118 -0.10339,-0.0374 -4.50188,-2.12989 -9.77444,-4.64995 z"
       id="path5769"
       transform="matrix(0.75000002,0,0,-0.75000002,0,450.00001)" /><path
       style="fill:#05bf85;fill-opacity:1;stroke-width:0.75188"
       d="m 259.77444,305.6391 v -12.78196 h 22.93233 22.93233 v 12.78196 12.78195 h -22.93233 -22.93233 z"
       id="path5808"
       transform="matrix(0.75000002,0,0,-0.75000002,0,450.00001)" /><path
       style="fill:#05bf85;fill-opacity:1;stroke-width:0.75188"
       d="m 358.27487,254.32331 c 0.0116,-2.59133 1.83099,-6.90409 3.913,-9.27538 7.53666,-8.58377 20.21109,-7.63308 25.97002,1.94797 1.34399,2.23597 2.44361,5.01082 2.44361,6.16633 v 2.10093 h -16.16541 c -12.43331,0 -16.16445,-0.21698 -16.16122,-0.93985 z"
       id="path5847"
       transform="matrix(0.75000002,0,0,-0.75000002,0,450.00001)" /><path
       style="fill:#05bf86;fill-opacity:0.439216;stroke-width:0.75188"
       d="m 217.23053,198.14616 c 2.18576,-19.31962 12.64595,-33.89041 31.26571,-43.55237 7.84672,-4.07174 19.17935,-8.1677 28.94737,-10.46247 7.31673,-1.71889 9.87504,-1.94394 22.18045,-1.95113 7.65038,-0.004 18.64662,0.14601 24.43609,0.33441 9.68668,0.31522 10.81379,0.20982 14.13037,-1.32134 1.98223,-0.91514 4.76408,-2.62008 6.18189,-3.78875 2.98813,-2.46307 9.60064,-10.74976 9.03184,-11.31856 -0.21208,-0.21208 -2.3336,1.46371 -4.71448,3.72399 -7.61053,7.22502 -14.55566,9.37039 -26.29565,8.12279 -22.59685,-2.40135 -24.30284,-2.4858 -32.04325,-1.58604 -4.22849,0.49153 -10.63877,1.6816 -14.24508,2.64461 -3.6063,0.96301 -6.55692,1.52506 -6.55692,1.24901 0,-1.25005 5.50799,-8.0631 8.3132,-10.28295 7.60783,-6.02029 17.69117,-7.14847 35.29582,-3.94908 6.47937,1.17753 12.31764,1.71083 18.797,1.71702 11.7945,0.0113 15.88673,-1.37241 22.70273,-7.67627 l 4.60562,-4.25956 -0.47501,8.27068 c -0.5695,9.91618 -1.90629,15.29473 -5.79306,23.30827 -8.8957,18.34074 -28.16538,31.21758 -48.62254,32.49172 -12.95766,0.80705 -22.60694,-2.52475 -29.79392,-10.28755 -2.5347,-2.73779 -4.73956,-6.03713 -5.65295,-8.45909 -1.47541,-3.91222 -1.53918,-3.96715 -4.3337,-3.73302 -3.71451,0.3112 -11.00755,3.30398 -15.71988,6.45083 -10.94719,7.31043 -17.83943,18.56652 -19.99649,32.65732 l -0.94038,6.14295 h -5.60613 -5.60612 z"
       id="path5886"
       transform="matrix(0.75000002,0,0,-0.75000002,0,450.00001)" /><path
       style="fill:#05bf85;fill-opacity:1;stroke-width:0.75188"
       d="m 217.37622,199.06015 c 0.23659,-1.96429 1.07808,-6.03586 1.86998,-9.04794 5.30672,-20.18476 19.68249,-33.10574 46.96762,-42.2146 14.86357,-4.96205 19.15139,-5.44651 45.81626,-5.17649 22.37865,0.22661 23.44473,0.17288 26.72993,-1.34718 1.88191,-0.87076 4.62954,-2.64374 6.10585,-3.93995 3.40358,-2.98838 9.2544,-10.53203 8.64288,-11.14354 -0.25466,-0.25467 -2.00866,0.85356 -3.89775,2.46273 -10.24546,8.72733 -14.77003,9.97305 -30.814,8.48387 -17.03225,-1.58091 -31.3515,-1.22821 -40.78947,1.0047 -4.23872,1.00283 -7.70677,1.62578 -7.70677,1.38433 0,-0.24145 1.45256,-2.20977 3.22791,-4.37404 6.72102,-8.1934 11.87538,-10.3774 24.2157,-10.26068 4.54887,0.043 11.31579,0.63336 15.03759,1.31185 14.48402,2.64048 29.17116,2.35547 35.04106,-0.67997 1.15134,-0.59538 4.13194,-2.77905 6.62356,-4.85259 l 4.5302,-3.77008 -0.43148,6.21137 c -0.68409,9.84777 -2.26942,16.23001 -5.83846,23.5046 -5.89118,12.00768 -14.78238,21.01865 -26.39104,26.74654 -9.32902,4.60309 -16.87764,6.2006 -27.50826,5.82158 -8.35195,-0.29778 -9.11262,-0.46101 -14.45682,-3.10226 -6.62955,-3.2765 -12.00492,-8.68543 -15.07463,-15.16875 l -2.02277,-4.27216 -3.17553,0.52332 c -7.83834,1.29174 -18.6944,7.67224 -24.57241,14.4421 -4.33067,4.98774 -8.89845,14.67699 -10.25698,21.75727 -0.62095,3.23617 -1.28749,6.64522 -1.48121,7.57567 -0.32451,1.55865 -0.76397,1.69173 -5.58667,1.69173 h -5.23445 z"
       id="path8846"
       transform="matrix(0.75000002,0,0,-0.75000002,0,450.00001)" /></g></svg>
