<?xml version="1.0" encoding="UTF-8" standalone="no"?>
<svg
   version="1.1"
   id="svg2"
   xml:space="preserve"
   width="600"
   height="600"
   viewBox="0 0 600 600"
   sodipodi:docname="43014-test.svg"
   inkscape:version="1.1.2 (b8e25be833, 2022-02-05)"
   xmlns:inkscape="http://www.inkscape.org/namespaces/inkscape"
   xmlns:sodipodi="http://sodipodi.sourceforge.net/DTD/sodipodi-0.dtd"
   xmlns:xlink="http://www.w3.org/1999/xlink"
   xmlns="http://www.w3.org/2000/svg"
   xmlns:svg="http://www.w3.org/2000/svg"
   xmlns:rdf="http://www.w3.org/1999/02/22-rdf-syntax-ns#"
   xmlns:cc="http://creativecommons.org/ns#"
   xmlns:dc="http://purl.org/dc/elements/1.1/"><metadata
     id="metadata8"><rdf:RDF><cc:Work
         rdf:about=""><dc:format>image/svg+xml</dc:format><dc:type
           rdf:resource="http://purl.org/dc/dcmitype/StillImage" /></cc:Work></rdf:RDF></metadata><defs
     id="defs6"><pattern
       inkscape:collect="always"
       patternUnits="userSpaceOnUse"
       width="6"
       height="1"
       patternTransform="translate(0,0) scale(10,10)"
       id="Strips1_5"
       inkscape:stockid="Stripes 1:5"><rect
         style="fill:black;stroke:none"
         x="0"
         y="-0.5"
         width="1"
         height="2"
         id="rect28507" /></pattern><linearGradient
       inkscape:collect="always"
       id="linearGradient16668"><stop
         style="stop-color:#ff00ff;stop-opacity:1;"
         offset="0"
         id="stop16664" /><stop
         style="stop-color:#ff00ff;stop-opacity:0;"
         offset="1"
         id="stop16666" /></linearGradient><radialGradient
       fx="0"
       fy="0"
       cx="0"
       cy="0"
       r="1"
       gradientUnits="userSpaceOnUse"
       gradientTransform="matrix(2760.29,0,0,-2760.29,2250,2250)"
       spreadMethod="pad"
       id="radialGradient18"><stop
         style="stop-opacity:1;stop-color:#ffffff"
         offset="0"
         id="stop14" /><stop
         style="stop-opacity:1;stop-color:#bcbcbd"
         offset="1"
         id="stop16" /></radialGradient><radialGradient
       inkscape:collect="always"
       xlink:href="#linearGradient16668"
       id="radialGradient16674"
       cx="221.01222"
       cy="-140.89221"
       fx="221.01222"
       fy="-140.89221"
       r="109.7168"
       gradientTransform="matrix(1,0,0,0.22778816,0,-108.79863)"
       gradientUnits="userSpaceOnUse" /><filter
       inkscape:collect="always"
       style="color-interpolation-filters:sRGB"
       id="filter29498"
       x="-0.0023719508"
       y="-0.010412968"
       width="1.0047439"
       height="1.0208259"><feGaussianBlur
         inkscape:collect="always"
         stdDeviation="0.060619043"
         id="feGaussianBlur29500" /></filter></defs><sodipodi:namedview
     pagecolor="#ffffff"
     bordercolor="#666666"
     borderopacity="1"
     objecttolerance="10"
     gridtolerance="10"
     guidetolerance="10"
     inkscape:pageopacity="0"
     inkscape:pageshadow="2"
     inkscape:window-width="1920"
     inkscape:window-height="991"
     id="namedview4"
     inkscape:pagecheckerboard="0"
     showgrid="false"
     inkscape:zoom="1.33"
     inkscape:cx="146.2406"
     inkscape:cy="334.96241"
     inkscape:window-x="-9"
     inkscape:window-y="-9"
     inkscape:window-maximized="1"
     inkscape:current-layer="g10" /><g
     id="g10"
     inkscape:groupmode="layer"
     inkscape:label="ink_ext_XXXXXX"
     transform="matrix(1.3333333,0,0,-1.3333333,0,600)"><path
       style="fill:#05bf85;fill-opacity:1;stroke-width:0.75188"
       d="m 208.05273,261.46617 c -2.84512,-4.03196 -7.11786,-10.12219 -9.49498,-13.53384 -2.37711,-3.41165 -4.56218,-6.20301 -4.8557,-6.20301 -0.29351,0 -3.69419,4.55014 -7.55706,10.11141 -6.87783,9.90184 -7.07195,10.10186 -9.36615,9.65088 -6.16172,-1.21125 -6.61798,0.17333 5.82209,-17.66802 l 11.38403,-16.32678 10.33835,-0.0266 10.33834,-0.0266 v -8.27068 -8.27067 h 7.89474 7.89474 v 8.27067 8.27068 h 10.1162 10.1162 l 12.61458,-18.04511 12.61457,-18.04512 49.2617,0.0123 49.26171,0.0123 L 400,227.91942 c 14.06015,20.09781 26.18924,37.51709 26.95353,38.70952 l 1.38963,2.16805 h -4.43878 -4.43877 l -22.09719,-31.57894 c -12.15345,-17.36843 -22.33894,-31.57895 -22.63441,-31.57895 -0.29548,0 -10.46459,14.20539 -22.59803,31.56754 l -22.06079,31.56754 -58.42475,0.0114 -58.42475,0.0114 z"
       id="path5691"
       transform="matrix(0.75000002,0,0,-0.75000002,0,450.00001)" /><path
       style="fill:#05bf85;fill-opacity:1;stroke-width:0.75188"
       d="m 265.47065,380.82799 c -81.17691,-4.03654 -127.58709,-17.61425 -135.43762,-39.62347 -2.87232,-8.05267 0.67256,-17.03717 7.99715,-20.26877 2.48856,-1.09795 2.94924,-1.61544 2.55234,-2.86709 -1.83888,-5.79899 -2.0565,-7.91701 -1.14714,-11.16492 1.90165,-6.79202 8.16589,-11.73982 14.90724,-11.77445 l 3.21479,-0.0165 -1.21653,-2.35251 c -3.89521,-7.53251 0.95335,-16.21017 9.51704,-17.03303 3.32627,-0.31961 3.7053,-0.56017 4.4532,-2.82633 0.93596,-2.83597 3.57904,-4.8558 6.35416,-4.8558 h 1.90615 v 28.85867 28.85867 l 19.49131,10.61502 19.49131,10.61501 h 70.35832 70.35831 v -27.06767 -27.06767 h 16.16541 16.16541 v 27.06767 27.06767 h 14.28572 14.28571 v -34.98101 -34.98102 l 1.91566,-0.72833 c 3.14439,-1.1955 6.96823,0.85646 8.4031,4.50928 1.12398,2.86136 1.3566,3.02319 4.34576,3.02319 8.22896,0 13.73188,9.63484 9.82166,17.19636 l -1.21652,2.35251 3.21479,0.0165 c 9.46216,0.0486 17.06233,9.15967 15.03889,18.0286 -0.42456,1.8609 -0.99465,4.0696 -1.26685,4.90822 -0.40449,1.24615 -0.0154,1.69815 2.12917,2.47365 4.75855,1.72071 9.49404,8.59657 9.49404,13.78517 0,18.46049 -42.97283,31.32217 -124.06015,37.13096 -19.31894,1.38393 -63.76421,1.98442 -81.52183,1.10142 z"
       id="path5730"
       transform="matrix(0.75000002,0,0,-0.75000002,0,450.00001)" /><path
       style="fill:#05bf85;fill-opacity:1;stroke-width:0.75188"
       d="m 198.68421,313.70307 -9.58647,-4.58193 v -10.76358 c 0,-5.91997 0.25376,-10.7679 0.56391,-10.77318 0.31015,-0.005 4.70865,1.08116 9.77444,2.41432 l 9.21053,2.42394 v 12.9992 c 0,7.14957 -0.0846,12.9686 -0.18797,12.93118 -0.10339,-0.0374 -4.50188,-2.12989 -9.77444,-4.64995 z"
       id="path5769"
       transform="matrix(0.75000002,0,0,-0.75000002,0,450.00001)" /><path
       style="fill:#05bf85;fill-opacity:1;stroke-width:0.75188"
       d="m 259.77444,305.6391 v -12.78196 h 22.93233 22.93233 v 12.78196 12.78195 h -22.93233 -22.93233 z"
       id="path5808"
       transform="matrix(0.75000002,0,0,-0.75000002,0,450.00001)" /><path
       style="fill:#05bf85;fill-opacity:1;stroke-width:0.75188"
       d="m 358.27487,254.32331 c 0.0116,-2.59133 1.83099,-6.90409 3.913,-9.27538 7.53666,-8.58377 20.21109,-7.63308 25.97002,1.94797 1.34399,2.23597 2.44361,5.01082 2.44361,6.16633 v 2.10093 h -16.16541 c -12.43331,0 -16.16445,-0.21698 -16.16122,-0.93985 z"
       id="path5847"
       transform="matrix(0.75000002,0,0,-0.75000002,0,450.00001)" /><path
       style="fill:#05bf86;fill-opacity:0.43921569;stroke-width:0.75188"
       d="m 217.23053,198.14616 c 2.18576,-19.31962 12.64595,-33.89041 31.26571,-43.55237 7.84672,-4.07174 19.17935,-8.1677 28.94737,-10.46247 7.31673,-1.71889 9.87504,-1.94394 22.18045,-1.95113 7.65038,-0.004 18.64662,0.14601 24.43609,0.33441 9.68668,0.31522 10.81379,0.20982 14.13037,-1.32134 1.98223,-0.91514 4.76408,-2.62008 6.18189,-3.78875 2.98813,-2.46307 9.60064,-10.74976 9.03184,-11.31856 -0.21208,-0.21208 -2.3336,1.46371 -4.71448,3.72399 -7.61053,7.22502 -14.55566,9.37039 -26.29565,8.12279 -22.59685,-2.40135 -24.30284,-2.4858 -32.04325,-1.58604 -4.22849,0.49153 -10.63877,1.6816 -14.24508,2.64461 -3.6063,0.96301 -6.55692,1.52506 -6.55692,1.24901 0,-1.25005 5.50799,-8.0631 8.3132,-10.28295 7.60783,-6.02029 17.69117,-7.14847 35.29582,-3.94908 6.47937,1.17753 12.31764,1.71083 18.797,1.71702 11.7945,0.0113 15.88673,-1.37241 22.70273,-7.67627 l 4.60562,-4.25956 -0.47501,8.27068 c -0.5695,9.91618 -1.90629,15.29473 -5.79306,23.30827 -8.8957,18.34074 -28.16538,31.21758 -48.62254,32.49172 -12.95766,0.80705 -22.60694,-2.52475 -29.79392,-10.28755 -2.5347,-2.73779 -4.73956,-6.03713 -5.65295,-8.45909 -1.47541,-3.91222 -1.53918,-3.96715 -4.3337,-3.73302 -3.71451,0.3112 -11.00755,3.30398 -15.71988,6.45083 -10.94719,7.31043 -17.83943,18.56652 -19.99649,32.65732 l -0.94038,6.14295 h -5.60613 -5.60612 z"
       id="path5886"
       transform="matrix(0.75000002,0,0,-0.75000002,0,450.00001)" /><path
       style="fill:#05bf85;fill-opacity:1;stroke-width:0.75188"
       d="m 217.37622,199.06015 c 0.23659,-1.96429 1.07808,-6.03586 1.86998,-9.04794 5.30672,-20.18476 19.68249,-33.10574 46.96762,-42.2146 14.86357,-4.96205 19.15139,-5.44651 45.81626,-5.17649 22.37865,0.22661 23.44473,0.17288 26.72993,-1.34718 1.88191,-0.87076 4.62954,-2.64374 6.10585,-3.93995 3.40358,-2.98838 9.2544,-10.53203 8.64288,-11.14354 -0.25466,-0.25467 -2.00866,0.85356 -3.89775,2.46273 -10.24546,8.72733 -14.77003,9.97305 -30.814,8.48387 -17.03225,-1.58091 -31.3515,-1.22821 -40.78947,1.0047 -4.23872,1.00283 -7.70677,1.62578 -7.70677,1.38433 0,-0.24145 1.45256,-2.20977 3.22791,-4.37404 6.72102,-8.1934 11.87538,-10.3774 24.2157,-10.26068 4.54887,0.043 11.31579,0.63336 15.03759,1.31185 14.48402,2.64048 29.17116,2.35547 35.04106,-0.67997 1.15134,-0.59538 4.13194,-2.77905 6.62356,-4.85259 l 4.5302,-3.77008 -0.43148,6.21137 c -0.68409,9.84777 -2.26942,16.23001 -5.83846,23.5046 -5.89118,12.00768 -14.78238,21.01865 -26.39104,26.74654 -9.32902,4.60309 -16.87764,6.2006 -27.50826,5.82158 -8.35195,-0.29778 -9.11262,-0.46101 -14.45682,-3.10226 -6.62955,-3.2765 -12.00492,-8.68543 -15.07463,-15.16875 l -2.02277,-4.27216 -3.17553,0.52332 c -7.83834,1.29174 -18.6944,7.67224 -24.57241,14.4421 -4.33067,4.98774 -8.89845,14.67699 -10.25698,21.75727 -0.62095,3.23617 -1.28749,6.64522 -1.48121,7.57567 -0.32451,1.55865 -0.76397,1.69173 -5.58667,1.69173 h -5.23445 z"
       id="path8846"
       transform="matrix(0.75000002,0,0,-0.75000002,0,450.00001)" /><text
       xml:space="preserve"
       style="font-style:normal;font-weight:normal;font-size:56px;line-height:1.55;font-family:sans-serif;opacity:0.85;mix-blend-mode:hard-light;fill:#de0075;fill-opacity:1;stroke:#05bf85;stroke-width:0.75;stroke-opacity:1;filter:url(#filter29498)"
       x="113.53761"
       y="-128.56018"
       id="text10504"
       transform="matrix(1,0,0,-1,3,-3)"><tspan
         sodipodi:role="line"
         id="tspan10502"
         style="font-style:normal;font-variant:normal;font-weight:normal;font-stretch:normal;font-size:56px;font-family:'Bauhaus 93';-inkscape-font-specification:'Bauhaus 93, ';fill:#de0075;fill-opacity:1;stroke:#05bf85;stroke-width:0.75;stroke-opacity:1"
         x="113.53761"
         y="-128.56018"
         dx="0 0 0 0 0"
         rotate="0 0 0 0 0 0">Yagodka</tspan></text></g></svg>

